<?xml version="1.0" encoding="UTF-8" standalone="no"?>
<svg width="464px" height="139px" viewBox="0 0 464 139" version="1.1" xmlns="http://www.w3.org/2000/svg" xmlns:xlink="http://www.w3.org/1999/xlink" xmlns:sketch="http://www.bohemiancoding.com/sketch/ns">
    <!-- Generator: Sketch 3.3 (11970) - http://www.bohemiancoding.com/sketch -->
    <title>devices</title>
    <desc>Created with Sketch.</desc>
    <defs></defs>
    <g id="Page-1" stroke="none" stroke-width="1" fill="none" fill-rule="evenodd" sketch:type="MSPage">
        <g id="onboarding-1" sketch:type="MSArtboardGroup" transform="translate(-557.000000, -317.000000)">
            <g id="devices" sketch:type="MSLayerGroup" transform="translate(557.000000, 317.000000)">
                <g id="iphone" transform="translate(72.000000, 57.000000)" fill="#FFFFFF" sketch:type="MSShapeGroup">
                    <path d="M37.0588235,0 L4.94117647,0 C2.22352941,0 0,2.20958084 0,4.91017964 L0,77.0898204 C0,79.7904192 2.22352941,82 4.94117647,82 L37.0588235,82 C39.7764706,82 42,79.7904192 42,77.0898204 L42,4.91017964 C42,2.20958084 39.7764706,0 37.0588235,0 L37.0588235,0 Z M21,1.71856287 C21.2964706,1.71856287 21.4941176,1.96407186 21.4941176,2.20958084 C21.4941176,2.45508982 21.2470588,2.7005988 21,2.7005988 C20.7035294,2.7005988 20.5058824,2.45508982 20.5058824,2.20958084 C20.5058824,1.96407186 20.7035294,1.71856287 21,1.71856287 L21,1.71856287 Z M17.2941176,3.73173653 L24.7058824,3.73173653 C24.9529412,3.73173653 25.1505882,3.92814371 25.1505882,4.17365269 C25.1505882,4.41916168 24.9529412,4.61556886 24.7058824,4.61556886 L17.2941176,4.61556886 C17.0470588,4.61556886 16.8494118,4.41916168 16.8494118,4.17365269 C16.8494118,3.92814371 17.0470588,3.73173653 17.2941176,3.73173653 L17.2941176,3.73173653 Z M21,80.1341317 C19.32,80.1341317 17.9858824,78.8083832 17.9858824,77.1389222 C17.9858824,75.4694611 19.32,74.1437126 21,74.1437126 C22.68,74.1437126 24.0141176,75.4694611 24.0141176,77.1389222 C24.0141176,78.8083832 22.68,80.1341317 21,80.1341317 L21,80.1341317 Z M39.9741176,72.2778443 C39.9741176,72.5724551 39.7270588,72.8670659 39.3811765,72.8670659 L2.27294118,72.8670659 C1.97647059,72.8670659 1.68,72.6215569 1.68,72.2778443 L1.68,8.1508982 C1.68,7.85628743 1.92705882,7.56167665 2.27294118,7.56167665 L39.3811765,7.56167665 C39.6776471,7.56167665 39.9741176,7.80718563 39.9741176,8.1508982 L39.9741176,72.2778443 L39.9741176,72.2778443 Z" id="Shape"></path>
                </g>
                <g id="ipad" transform="translate(127.000000, 31.000000)" fill="#FFFFFF" sketch:type="MSShapeGroup">
                    <path d="M0,4.74496654 C0,2.12439388 2.13487053,0 4.75575751,0 L69.2442425,0 C71.8707748,0 74,2.13306379 74,4.74496654 L74,103.255033 C74,105.875606 71.8651295,108 69.2442425,108 L4.75575751,108 C2.12922516,108 0,105.866936 0,103.255033 L0,4.74496654 Z M37,5.77099237 C37.4541008,5.77099237 37.8222222,5.40188361 37.8222222,4.94656489 C37.8222222,4.49124616 37.4541008,4.1221374 37,4.1221374 C36.5458992,4.1221374 36.1777778,4.49124616 36.1777778,4.94656489 C36.1777778,5.40188361 36.5458992,5.77099237 37,5.77099237 Z M37,106.351145 C38.5893528,106.351145 39.8777778,105.059264 39.8777778,103.465649 C39.8777778,101.872033 38.5893528,100.580153 37,100.580153 C35.4106472,100.580153 34.1222222,101.872033 34.1222222,103.465649 C34.1222222,105.059264 35.4106472,106.351145 37,106.351145 Z M2.775,9.65675645 C2.775,9.21815342 3.12696566,8.86259542 3.56739726,8.86259542 L70.4326027,8.86259542 C70.8702317,8.86259542 71.225,9.22632256 71.225,9.65675645 L71.225,98.3432436 C71.225,98.7818466 70.8730343,99.1374046 70.4326027,99.1374046 L3.56739726,99.1374046 C3.12976834,99.1374046 2.775,98.7736774 2.775,98.3432436 L2.775,9.65675645 Z" id="Rectangle-5"></path>
                </g>
                <g id="AppleTV" transform="translate(0.000000, 79.000000)" fill="#FFFFFF" sketch:type="MSShapeGroup">
                    <path d="M0,12.2504298 C0,5.48470426 5.48365843,0 12.2504298,0 L47.7495702,0 C54.5152957,0 60,5.48365843 60,12.2504298 L60,47.7495702 C60,54.5152957 54.5163416,60 47.7495702,60 L12.2504298,60 C5.48470426,60 0,54.5163416 0,47.7495702 L0,12.2504298 Z M23.1084211,25.45 C23.6612281,25.2657895 24.1326316,25.1735088 24.522807,25.1735088 C25.1731579,25.1735088 25.752807,25.3470175 26.2622807,25.6938596 C26.4031579,25.8022807 26.5440351,25.9214035 26.6850877,26.0514035 C26.8257895,26.1815789 26.9666667,26.3335088 27.1077193,26.5066667 C26.6850877,26.8752632 26.3761404,27.2003509 26.1810526,27.4821053 C25.8233333,27.9808772 25.6445614,28.5389474 25.6445614,29.1566667 C25.6445614,29.8287719 25.8340351,30.435614 26.2135088,30.9775439 C26.5819298,31.5085965 27.0101754,31.85 27.4978947,32.0017544 C27.3894737,32.3268421 27.2540351,32.6601754 27.0914035,33.0015789 C26.9289474,33.3429825 26.7338596,33.687193 26.5061404,34.0338596 C25.8124561,35.0852632 25.1133333,35.6108772 24.4089474,35.6108772 C24.1163158,35.6108772 23.7315789,35.5240351 23.2547368,35.3507018 C22.7885965,35.1882456 22.3821053,35.1068421 22.0354386,35.1068421 C21.6777193,35.1068421 21.2875439,35.1938596 20.8649123,35.3670175 C20.4096491,35.5512281 20.0519298,35.6433333 19.7919298,35.6433333 C18.9680702,35.6433333 18.1552632,34.944386 17.3531579,33.5461404 C16.5510526,32.1589474 16.1501754,30.7933333 16.1501754,29.4492982 C16.1501754,28.2136842 16.4535088,27.2003509 17.0605263,26.4091228 C17.6784211,25.6287719 18.4531579,25.2385965 19.3854386,25.2385965 C19.7863158,25.2385965 20.2685965,25.3198246 20.8322807,25.4824561 C21.4066667,25.6450877 21.7805263,25.7263158 21.9540351,25.7263158 C22.1707018,25.7263158 22.555614,25.634386 23.1084211,25.45 Z M24.1977193,23.5640351 C24.0350877,23.9652632 23.785614,24.3391228 23.4498246,24.6857895 C23.1352632,24.9784211 22.8373684,25.1735088 22.555614,25.2710526 C22.3496491,25.3254386 22.0731579,25.3685965 21.7264912,25.4012281 C21.737193,24.5992982 21.9459649,23.9029825 22.3524561,23.3121053 C22.7587719,22.7214035 23.4389474,22.3178947 24.392807,22.1008772 C24.414386,22.1768421 24.4277193,22.2419298 24.4333333,22.2959649 C24.4387719,22.3503509 24.4415789,22.3991228 24.4415789,22.4422807 C24.4415789,22.7892982 24.3601754,23.1631579 24.1977193,23.5640351 Z M42.0535088,35.1124561 L40.035614,35.1124561 L36.6149123,25.772807 L38.8442105,25.772807 L40.4392982,30.7117544 C40.7082456,31.5317544 40.9322807,32.3196491 41.1119298,33.0754386 L41.1694737,33.0754386 C41.3233333,32.3964912 41.547193,31.6085965 41.8421053,30.7117544 L43.4178947,25.772807 L45.5894737,25.772807 L42.0535088,35.1124561 Z M33.5980702,31.8647368 C33.5980702,33.0177193 34.0015789,33.594386 34.8087719,33.594386 C35.1801754,33.594386 35.4877193,33.5624561 35.7312281,33.4982456 L35.7887719,35.0740351 C35.3785965,35.2277193 34.8405263,35.3047368 34.1745614,35.3047368 C33.3545614,35.3047368 32.7140351,35.0549123 32.252807,34.5552632 C31.7915789,34.0554386 31.5610526,33.2164912 31.5610526,32.0377193 L31.5610526,27.3294737 L30.1964912,27.3294737 L30.1964912,25.772807 L31.5610526,25.772807 L31.5610526,24.0624561 L33.5980702,23.4475439 L33.5980702,25.772807 L35.8849123,25.772807 L35.8849123,27.3294737 L33.5980702,27.3294737 L33.5980702,31.8647368 Z" id="Rectangle-path"></path>
                </g>
                <g id="mac" transform="translate(216.000000, 0.000000)" sketch:type="MSShapeGroup">
                    <path d="M229.979239,129.619632 L229.979239,8.52760736 C229.979239,3.83742331 226.117647,0 221.397924,0 L27.4602076,0 C22.7404844,0 18.8788927,3.83742331 18.8788927,8.52760736 L18.8788927,129.619632 L0,129.619632 L0,135.588957 C0,137.465031 1.54463668,139 3.43252595,139 L244.567474,139 C246.455363,139 248,137.465031 248,135.588957 L248,129.619632 L229.979239,129.619632 L229.979239,129.619632 Z M224.658824,127.658282 C224.658824,128.255215 224.229758,128.681595 223.629066,128.681595 L24.7141869,128.681595 C24.1134948,128.681595 23.6844291,128.255215 23.6844291,127.658282 L24.0276817,11.2564417 C24.0276817,10.6595092 24.4567474,10.2331288 25.0574394,10.2331288 L223.800692,10.2331288 C224.401384,10.2331288 224.83045,10.6595092 224.83045,11.2564417 L224.658824,127.658282 Z M124,6.28192352 C124.595507,6.28192352 125.078261,5.79950166 125.078261,5.20440414 C125.078261,4.60930661 124.595507,4.12688476 124,4.12688476 C123.404493,4.12688476 122.921739,4.60930661 122.921739,5.20440414 C122.921739,5.79950166 123.404493,6.28192352 124,6.28192352 Z" id="Shape" fill="#FFFFFF"></path>
                    <path d="M99,129 L149,129 L149,131.5 C149,132.880712 147.885575,134 146.503385,134 L101.496615,134 C100.117772,134 99,132.890338 99,131.5 L99,129 Z" id="Rectangle-7" fill="#C2C2C2"></path>
                </g>
                <g id="mark-white" transform="translate(313.000000, 60.000000)" fill="#FFFFFF" sketch:type="MSShapeGroup">
                    <path d="M39.034306,5.32907052e-15 C36.2590694,5.32907052e-15 32.8402997,1.68844221 28.5165615,5.16582915 C27.3702681,6.11055276 26.3245268,6.99497487 25.4396688,7.79899497 C24.5950315,7.01507538 23.5492902,6.11055276 22.362776,5.16582915 C18.0993691,1.68844221 14.6202681,5.32907052e-15 11.9053628,5.32907052e-15 C5.34936909,5.32907052e-15 2.48689958e-14,5.40703518 2.48689958e-14,12 C2.48689958e-14,18.6532663 5.34936909,24 11.9053628,24 C14.6805994,24 18.0993691,22.3115578 22.4231073,18.8341709 C23.5694006,17.8894472 24.615142,17.0050251 25.5,16.201005 C26.3446372,16.9849246 27.3903785,17.8894472 28.5768927,18.8341709 C32.9006309,22.3115578 36.3194006,24 39.0946372,24 C45.6506309,24 51,18.5929648 51,12 C50.9396688,5.40703518 45.5701893,5.32907052e-15 39.034306,5.32907052e-15 L39.034306,5.32907052e-15 Z M18.5820189,14.0703518 C14.0772871,17.6482412 12.1869085,17.8291457 11.8852524,17.8291457 C8.70780757,17.8291457 6.13367508,15.1959799 6.13367508,11.9798995 C6.13367508,8.7638191 8.72791798,6.15075377 11.8852524,6.15075377 C12.2271293,6.15075377 14.0772871,6.35175879 18.5820189,9.90954774 C19.466877,10.6130653 20.3115142,11.3567839 21.0153785,12 C20.2712934,12.6432161 19.4869874,13.3266332 18.5820189,14.0703518 L18.5820189,14.0703518 Z M27.169164,14.5929648 L23.2476341,14.0703518 L22.9459779,10.1708543 L25.4396688,7.77889447 L25.9625394,11.678392 L29.9041798,11.9798995 L27.169164,14.5929648 L27.169164,14.5929648 Z M39.034306,17.8492462 C38.692429,17.8492462 36.8422713,17.6482412 32.3375394,14.0904523 C31.4526814,13.3869347 30.6080442,12.6432161 29.9041798,12 C30.6080442,11.3567839 31.432571,10.6532663 32.2772082,9.96984925 C36.7819401,6.35175879 38.6723186,6.15075377 38.9739748,6.15075377 C42.1514196,6.15075377 44.7255521,8.7839196 44.7255521,12 C44.7858833,15.2160804 42.1916404,17.8492462 39.034306,17.8492462 L39.034306,17.8492462 Z" id="Shape"></path>
                </g>
            </g>
        </g>
    </g>
</svg>