<?xml version="1.0" encoding="UTF-8" standalone="no"?>
<svg width="174px" height="230px" viewBox="0 0 174 230" version="1.1" xmlns="http://www.w3.org/2000/svg" xmlns:xlink="http://www.w3.org/1999/xlink" xmlns:sketch="http://www.bohemiancoding.com/sketch/ns">
    <!-- Generator: Sketch 3.3 (11970) - http://www.bohemiancoding.com/sketch -->
    <title>iphone-trust</title>
    <desc>Created with Sketch.</desc>
    <defs>
        <linearGradient x1="50%" y1="36.3500478%" x2="50%" y2="74.2660851%" id="linearGradient-1">
            <stop stop-color="#FFFFFF" offset="0%"></stop>
            <stop stop-color="#FFFFFF" stop-opacity="0" offset="84.6440529%"></stop>
        </linearGradient>
    </defs>
    <g id="Page-1" stroke="none" stroke-width="1" fill="none" fill-rule="evenodd" sketch:type="MSPage">
        <g id="onboarding-4" sketch:type="MSArtboardGroup" transform="translate(-694.000000, -305.000000)">
            <g id="iphone-trust" sketch:type="MSLayerGroup" transform="translate(694.000000, 305.000000)">
                <path d="M153.529412,0 L20.4705882,0 C9.21176471,0 0,9.05389222 0,20.1197605 L0,315.88024 C0,326.946108 9.21176471,336 20.4705882,336 L153.529412,336 C164.788235,336 174,326.946108 174,315.88024 L174,20.1197605 C174,9.05389222 164.788235,0 153.529412,0 L153.529412,0 Z M87,7 C88.2,7 89,8 89,9 C89,10 88,11 87,11 C85.8,11 85,10 85,9 C85,8 85.8,7 87,7 L87,7 Z M71.8214286,15 L102.178571,15 C103.190476,15 104,15.8888889 104,17 C104,18.1111111 103.190476,19 102.178571,19 L71.8214286,19 C70.8095238,19 70,18.1111111 70,17 C70,15.8888889 70.8095238,15 71.8214286,15 L71.8214286,15 Z M87.5,329 C80.5327869,329 75,323.467213 75,316.5 C75,309.532787 80.5327869,304 87.5,304 C94.4672131,304 100,309.532787 100,316.5 C100,323.467213 94.4672131,329 87.5,329 L87.5,329 Z M166,296.581955 C166,297.790977 164.974194,299 163.538065,299 L9.46193548,299 C8.23096774,299 7,297.992481 7,296.581955 L7,33.4180451 C7,32.2090226 8.02580645,31 9.46193548,31 L163.538065,31 C164.769032,31 166,32.0075188 166,33.4180451 L166,296.581955 L166,296.581955 Z" id="Shape" fill="url(#linearGradient-1)" sketch:type="MSShapeGroup"></path>
                <g id="alert" transform="translate(18.000000, 100.000000)" sketch:type="MSShapeGroup">
                    <path d="M0,50.4533203 L0,6.29984617 C0,2.98622263 2.69049412,0.3 5.99692642,0.3 L131.003074,0.3 C134.315085,0.3 137,2.992365 137,6.29073373 L137,50.3771484 L0,50.4533203 Z" id="Rectangle-14-Copy-2" fill="#FFFFFF"></path>
                    <path d="M0,52 L67.7626953,52 L67.7626953,80 L5.99861678,80 C2.68567221,80 0,77.3152423 0,73.9932975 L0,52 Z" id="Rectangle-14-Copy" opacity="0.400000006" fill="#FFFFFF"></path>
                    <path d="M69.2373047,52 L137,52 L137,80 L75.2359215,80 C71.9229769,80 69.2373047,77.3152423 69.2373047,73.9932975 L69.2373047,52 Z" id="Rectangle-14-Copy-3" fill="#FFFFFF" transform="translate(103.118652, 66.000000) scale(-1, 1) translate(-103.118652, -66.000000) "></path>
                    <path d="M9.00292969,62.2495117 L9.00292969,70 L11.7797852,70 C14.0893555,70 15.4482422,68.5605469 15.4482422,66.1113281 C15.4482422,63.6674805 14.0893555,62.2495117 11.7797852,62.2495117 L9.00292969,62.2495117 Z M10.2060547,63.2861328 L11.6669922,63.2861328 C13.3105469,63.2861328 14.2236328,64.2958984 14.2236328,66.1220703 C14.2236328,67.9536133 13.3105469,68.9580078 11.6669922,68.9580078 L10.2060547,68.9580078 L10.2060547,63.2861328 Z M18.9716797,70.0698242 C20.6582031,70.0698242 21.7270508,68.9204102 21.7270508,67.0834961 C21.7270508,65.246582 20.652832,64.0917969 18.9716797,64.0917969 C17.2905273,64.0917969 16.2109375,65.2519531 16.2109375,67.0834961 C16.2109375,68.9204102 17.2851562,70.0698242 18.9716797,70.0698242 L18.9716797,70.0698242 Z M18.9716797,69.1030273 C17.9833984,69.1030273 17.3925781,68.3564453 17.3925781,67.0834961 C17.3925781,65.815918 17.9833984,65.0585938 18.9716797,65.0585938 C19.9599609,65.0585938 20.5454102,65.8105469 20.5454102,67.0834961 C20.5454102,68.3564453 19.9599609,69.1030273 18.9716797,69.1030273 L18.9716797,69.1030273 Z M22.6616211,70 L23.8271484,70 L23.8271484,66.6323242 C23.8271484,65.7138672 24.4072266,65.1015625 25.2880859,65.1015625 C26.1420898,65.1015625 26.6040039,65.5957031 26.6040039,66.4819336 L26.6040039,70 L27.7695312,70 L27.7695312,66.2617188 C27.7695312,64.9189453 26.9799805,64.1025391 25.690918,64.1025391 C24.7885742,64.1025391 24.1494141,64.4624023 23.7949219,65.1499023 L23.7734375,65.1499023 L23.7734375,64.1669922 L22.6616211,64.1669922 L22.6616211,70 Z M29.6870117,65.0854492 L30.4550781,62.2495117 L29.3271484,62.2495117 L28.6933594,65.0854492 L29.6870117,65.0854492 Z M31.8569336,62.8564453 L31.8569336,64.1669922 L31.0512695,64.1669922 L31.0512695,65.0854492 L31.8569336,65.0854492 L31.8569336,68.4638672 C31.8569336,69.5917969 32.3081055,70.0375977 33.4736328,70.0375977 C33.7260742,70.0375977 34,70.0107422 34.1289062,69.9785156 L34.1289062,69.0600586 C34.0537109,69.0708008 33.8549805,69.0869141 33.7314453,69.0869141 C33.2426758,69.0869141 33.0170898,68.8505859 33.0170898,68.3457031 L33.0170898,65.0854492 L34.1342773,65.0854492 L34.1342773,64.1669922 L33.0170898,64.1669922 L33.0170898,62.8564453 L31.8569336,62.8564453 Z M38.0014648,62.8564453 L38.0014648,64.1669922 L37.1958008,64.1669922 L37.1958008,65.0854492 L38.0014648,65.0854492 L38.0014648,68.4638672 C38.0014648,69.5917969 38.4526367,70.0375977 39.6181641,70.0375977 C39.8706055,70.0375977 40.1445312,70.0107422 40.2734375,69.9785156 L40.2734375,69.0600586 C40.1982422,69.0708008 39.9995117,69.0869141 39.8759766,69.0869141 C39.387207,69.0869141 39.1616211,68.8505859 39.1616211,68.3457031 L39.1616211,65.0854492 L40.2788086,65.0854492 L40.2788086,64.1669922 L39.1616211,64.1669922 L39.1616211,62.8564453 L38.0014648,62.8564453 Z M41.2617188,70 L42.4272461,70 L42.4272461,66.5195312 C42.4272461,65.6977539 42.9106445,65.1660156 43.6787109,65.1660156 C43.8505859,65.1660156 44.0922852,65.2036133 44.1889648,65.2412109 L44.1889648,64.1508789 C44.0976562,64.1240234 43.9311523,64.1079102 43.8022461,64.1079102 C43.1147461,64.1079102 42.5776367,64.5 42.3950195,65.1499023 L42.3735352,65.1499023 L42.3735352,64.1669922 L41.2617188,64.1669922 L41.2617188,70 Z M50.0380859,64.1669922 L48.8725586,64.1669922 L48.8725586,67.5292969 C48.8725586,68.453125 48.2871094,69.0600586 47.4169922,69.0600586 C46.5737305,69.0600586 46.0957031,68.5820312 46.0957031,67.6850586 L46.0957031,64.1669922 L44.9301758,64.1669922 L44.9301758,67.9052734 C44.9301758,69.2426758 45.746582,70.0644531 47.0195312,70.0644531 C47.9111328,70.0644531 48.5664062,69.6938477 48.9047852,69.0009766 L48.9262695,69.0009766 L48.9262695,70 L50.0380859,70 L50.0380859,64.1669922 Z M51.1337891,65.8266602 C51.1337891,66.6323242 51.6547852,67.1694336 52.7075195,67.4272461 L53.7495117,67.6850586 C54.3618164,67.8408203 54.5927734,68.0341797 54.5927734,68.4047852 C54.5927734,68.8774414 54.1362305,69.1782227 53.4111328,69.1782227 C52.6699219,69.1782227 52.21875,68.8720703 52.1274414,68.3134766 L50.9780273,68.3134766 C51.0639648,69.3662109 51.9931641,70.0698242 53.3520508,70.0698242 C54.7646484,70.0698242 55.7529297,69.3500977 55.7529297,68.3081055 C55.7529297,67.4487305 55.3178711,67.0244141 54.1416016,66.7397461 L53.1748047,66.5087891 C52.5571289,66.3583984 52.2670898,66.1166992 52.2670898,65.762207 C52.2670898,65.300293 52.7075195,64.9941406 53.3681641,64.9941406 C54.0341797,64.9941406 54.4799805,65.3164062 54.5283203,65.8320312 L55.6240234,65.8320312 C55.597168,64.8168945 54.6733398,64.097168 53.3950195,64.097168 C52.0522461,64.097168 51.1337891,64.8007812 51.1337891,65.8266602 L51.1337891,65.8266602 Z M57.0473633,62.8564453 L57.0473633,64.1669922 L56.2416992,64.1669922 L56.2416992,65.0854492 L57.0473633,65.0854492 L57.0473633,68.4638672 C57.0473633,69.5917969 57.4985352,70.0375977 58.6640625,70.0375977 C58.9165039,70.0375977 59.1904297,70.0107422 59.3193359,69.9785156 L59.3193359,69.0600586 C59.2441406,69.0708008 59.0454102,69.0869141 58.921875,69.0869141 C58.4331055,69.0869141 58.2075195,68.8505859 58.2075195,68.3457031 L58.2075195,65.0854492 L59.324707,65.0854492 L59.324707,64.1669922 L58.2075195,64.1669922 L58.2075195,62.8564453 L57.0473633,62.8564453 Z" id="Don’t-trust" fill="#252525"></path>
                    <path d="M92.435791,70 L92.435791,63.2861328 L94.8474121,63.2861328 L94.8474121,62.2495117 L88.8156738,62.2495117 L88.8156738,63.2861328 L91.232666,63.2861328 L91.232666,70 L92.435791,70 Z M94.9978027,70 L96.1633301,70 L96.1633301,66.5195312 C96.1633301,65.6977539 96.6467285,65.1660156 97.4147949,65.1660156 C97.5866699,65.1660156 97.8283691,65.2036133 97.9250488,65.2412109 L97.9250488,64.1508789 C97.8337402,64.1240234 97.6672363,64.1079102 97.5383301,64.1079102 C96.8508301,64.1079102 96.3137207,64.5 96.1311035,65.1499023 L96.1096191,65.1499023 L96.1096191,64.1669922 L94.9978027,64.1669922 L94.9978027,70 Z M103.77417,64.1669922 L102.608643,64.1669922 L102.608643,67.5292969 C102.608643,68.453125 102.023193,69.0600586 101.153076,69.0600586 C100.309814,69.0600586 99.8317871,68.5820312 99.8317871,67.6850586 L99.8317871,64.1669922 L98.6662598,64.1669922 L98.6662598,67.9052734 C98.6662598,69.2426758 99.482666,70.0644531 100.755615,70.0644531 C101.647217,70.0644531 102.30249,69.6938477 102.640869,69.0009766 L102.662354,69.0009766 L102.662354,70 L103.77417,70 L103.77417,64.1669922 Z M104.869873,65.8266602 C104.869873,66.6323242 105.390869,67.1694336 106.443604,67.4272461 L107.485596,67.6850586 C108.0979,67.8408203 108.328857,68.0341797 108.328857,68.4047852 C108.328857,68.8774414 107.872314,69.1782227 107.147217,69.1782227 C106.406006,69.1782227 105.954834,68.8720703 105.863525,68.3134766 L104.714111,68.3134766 C104.800049,69.3662109 105.729248,70.0698242 107.088135,70.0698242 C108.500732,70.0698242 109.489014,69.3500977 109.489014,68.3081055 C109.489014,67.4487305 109.053955,67.0244141 107.877686,66.7397461 L106.910889,66.5087891 C106.293213,66.3583984 106.003174,66.1166992 106.003174,65.762207 C106.003174,65.300293 106.443604,64.9941406 107.104248,64.9941406 C107.770264,64.9941406 108.216064,65.3164062 108.264404,65.8320312 L109.360107,65.8320312 C109.333252,64.8168945 108.409424,64.097168 107.131104,64.097168 C105.78833,64.097168 104.869873,64.8007812 104.869873,65.8266602 L104.869873,65.8266602 Z M110.783447,62.8564453 L110.783447,64.1669922 L109.977783,64.1669922 L109.977783,65.0854492 L110.783447,65.0854492 L110.783447,68.4638672 C110.783447,69.5917969 111.234619,70.0375977 112.400146,70.0375977 C112.652588,70.0375977 112.926514,70.0107422 113.05542,69.9785156 L113.05542,69.0600586 C112.980225,69.0708008 112.781494,69.0869141 112.657959,69.0869141 C112.169189,69.0869141 111.943604,68.8505859 111.943604,68.3457031 L111.943604,65.0854492 L113.060791,65.0854492 L113.060791,64.1669922 L111.943604,64.1669922 L111.943604,62.8564453 L110.783447,62.8564453 Z" id="Trust" fill="#252525"></path>
                    <path d="M21.6672363,16.2495117 L21.6672363,24 L24.3259277,24 C26.630127,24 27.9836426,22.565918 27.9836426,20.1220703 C27.9836426,17.6835938 26.6247559,16.2495117 24.3259277,16.2495117 L21.6672363,16.2495117 Z M22.6340332,17.1196289 L24.2614746,17.1196289 C26.0231934,17.1196289 26.9953613,18.1938477 26.9953613,20.1328125 C26.9953613,22.0556641 26.0178223,23.1298828 24.2614746,23.1298828 L22.6340332,23.1298828 L22.6340332,17.1196289 Z M31.447998,24.0537109 C33.0754395,24.0537109 34.1174316,22.8989258 34.1174316,21.1049805 C34.1174316,19.3056641 33.0754395,18.15625 31.447998,18.15625 C29.8205566,18.15625 28.7785645,19.3056641 28.7785645,21.1049805 C28.7785645,22.8989258 29.8205566,24.0537109 31.447998,24.0537109 L31.447998,24.0537109 Z M31.447998,23.2211914 C30.3737793,23.2211914 29.729248,22.4316406 29.729248,21.1049805 C29.729248,19.7783203 30.3684082,18.9887695 31.447998,18.9887695 C32.5275879,18.9887695 33.166748,19.7729492 33.166748,21.1049805 C33.166748,22.4316406 32.5275879,23.2211914 31.447998,23.2211914 L31.447998,23.2211914 Z M38.2263184,26.1000977 C39.2521973,26.1000977 39.7141113,25.6972656 40.208252,24.3544922 L42.4748535,18.2099609 L41.4919434,18.2099609 L39.869873,23.0493164 L39.8483887,23.0493164 L38.2263184,18.2099609 L37.232666,18.2099609 L39.3757324,24.0053711 L39.2629395,24.3491211 C39.0266113,25.0473633 38.7365723,25.3051758 38.1994629,25.3051758 C38.0759277,25.3051758 37.9255371,25.2944336 37.8181152,25.2729492 L37.8181152,26.0625 C37.9309082,26.0839844 38.1081543,26.1000977 38.2263184,26.1000977 L38.2263184,26.1000977 Z M45.6276855,24.0537109 C47.255127,24.0537109 48.2971191,22.8989258 48.2971191,21.1049805 C48.2971191,19.3056641 47.255127,18.15625 45.6276855,18.15625 C44.0002441,18.15625 42.958252,19.3056641 42.958252,21.1049805 C42.958252,22.8989258 44.0002441,24.0537109 45.6276855,24.0537109 L45.6276855,24.0537109 Z M45.6276855,23.2211914 C44.5534668,23.2211914 43.9089355,22.4316406 43.9089355,21.1049805 C43.9089355,19.7783203 44.5480957,18.9887695 45.6276855,18.9887695 C46.7072754,18.9887695 47.3464355,19.7729492 47.3464355,21.1049805 C47.3464355,22.4316406 46.7072754,23.2211914 45.6276855,23.2211914 L45.6276855,23.2211914 Z M54.1086426,18.2099609 L53.1740723,18.2099609 L53.1740723,21.5722656 C53.1740723,22.565918 52.5456543,23.2211914 51.5949707,23.2211914 C50.6872559,23.2211914 50.1877441,22.7109375 50.1877441,21.7602539 L50.1877441,18.2099609 L49.2531738,18.2099609 L49.2531738,21.9213867 C49.2531738,23.2373047 50.0427246,24.0537109 51.3103027,24.0537109 C52.1965332,24.0537109 52.8464355,23.7099609 53.2062988,23.0439453 L53.2277832,23.0439453 L53.2277832,24 L54.1086426,24 L54.1086426,18.2099609 Z M65.3342285,18.2099609 L64.4104004,18.2099609 L63.2341309,22.9418945 L63.2126465,22.9418945 L61.8859863,18.2099609 L60.9836426,18.2099609 L59.6569824,22.9418945 L59.635498,22.9418945 L58.4592285,18.2099609 L57.5354004,18.2099609 L59.1574707,24 L60.1027832,24 L61.4240723,19.4990234 L61.4455566,19.4990234 L62.7668457,24 L63.7121582,24 L65.3342285,18.2099609 Z M68.0197754,23.2426758 C67.2893066,23.2426758 66.8220215,22.8935547 66.8220215,22.3564453 C66.8220215,21.7978516 67.2731934,21.480957 68.1433105,21.4272461 L69.657959,21.3305664 L69.657959,21.7978516 C69.657959,22.6303711 68.9650879,23.2426758 68.0197754,23.2426758 L68.0197754,23.2426758 Z M67.8210449,24.0537109 C68.6320801,24.0537109 69.3571777,23.6401367 69.6848145,22.9956055 L69.7062988,22.9956055 L69.7062988,24 L70.5925293,24 L70.5925293,20.0253906 C70.5925293,18.8867188 69.7116699,18.15625 68.342041,18.15625 C67.1281738,18.15625 66.1774902,18.902832 66.1506348,19.8803711 L67.0476074,19.8803711 C67.1604004,19.3325195 67.6599121,18.9887695 68.3312988,18.9887695 C69.1853027,18.9887695 69.657959,19.3862305 69.657959,20.105957 L69.657959,20.5893555 L68.0358887,20.6860352 C66.6286621,20.7719727 65.8659668,21.3574219 65.8659668,22.3510742 C65.8659668,23.3769531 66.6447754,24.0537109 67.8210449,24.0537109 L67.8210449,24.0537109 Z M71.833252,24 L72.7678223,24 L72.7678223,20.6376953 C72.7678223,19.644043 73.3962402,18.9887695 74.3469238,18.9887695 C75.2600098,18.9887695 75.7541504,19.5043945 75.7541504,20.449707 L75.7541504,24 L76.6887207,24 L76.6887207,20.2885742 C76.6887207,18.9726562 75.8991699,18.15625 74.6262207,18.15625 C73.729248,18.15625 73.1008301,18.4946289 72.7355957,19.1499023 L72.7141113,19.1499023 L72.7141113,18.2099609 L71.833252,18.2099609 L71.833252,24 Z M78.2355957,16.9047852 L78.2355957,18.2099609 L77.4299316,18.2099609 L77.4299316,18.9833984 L78.2355957,18.9833984 L78.2355957,22.4960938 C78.2355957,23.6079102 78.6437988,24.0429688 79.6911621,24.0429688 C79.911377,24.0429688 80.1799316,24.0214844 80.2927246,23.9946289 L80.2927246,23.2050781 C80.2282715,23.2158203 80.0026855,23.2319336 79.8898926,23.2319336 C79.395752,23.2319336 79.170166,22.9902344 79.170166,22.4584961 L79.170166,18.9833984 L80.2980957,18.9833984 L80.2980957,18.2099609 L79.170166,18.2099609 L79.170166,16.9047852 L78.2355957,16.9047852 Z M84.2727051,16.9047852 L84.2727051,18.2099609 L83.467041,18.2099609 L83.467041,18.9833984 L84.2727051,18.9833984 L84.2727051,22.4960938 C84.2727051,23.6079102 84.6809082,24.0429688 85.7282715,24.0429688 C85.9484863,24.0429688 86.217041,24.0214844 86.329834,23.9946289 L86.329834,23.2050781 C86.2653809,23.2158203 86.0397949,23.2319336 85.927002,23.2319336 C85.4328613,23.2319336 85.2072754,22.9902344 85.2072754,22.4584961 L85.2072754,18.9833984 L86.3352051,18.9833984 L86.3352051,18.2099609 L85.2072754,18.2099609 L85.2072754,16.9047852 L84.2727051,16.9047852 Z M89.7565918,24.0537109 C91.3840332,24.0537109 92.4260254,22.8989258 92.4260254,21.1049805 C92.4260254,19.3056641 91.3840332,18.15625 89.7565918,18.15625 C88.1291504,18.15625 87.0871582,19.3056641 87.0871582,21.1049805 C87.0871582,22.8989258 88.1291504,24.0537109 89.7565918,24.0537109 L89.7565918,24.0537109 Z M89.7565918,23.2211914 C88.682373,23.2211914 88.0378418,22.4316406 88.0378418,21.1049805 C88.0378418,19.7783203 88.677002,18.9887695 89.7565918,18.9887695 C90.8361816,18.9887695 91.4753418,19.7729492 91.4753418,21.1049805 C91.4753418,22.4316406 90.8361816,23.2211914 89.7565918,23.2211914 L89.7565918,23.2211914 Z M96.3469238,16.9047852 L96.3469238,18.2099609 L95.5412598,18.2099609 L95.5412598,18.9833984 L96.3469238,18.9833984 L96.3469238,22.4960938 C96.3469238,23.6079102 96.755127,24.0429688 97.8024902,24.0429688 C98.0227051,24.0429688 98.2912598,24.0214844 98.4040527,23.9946289 L98.4040527,23.2050781 C98.3395996,23.2158203 98.1140137,23.2319336 98.0012207,23.2319336 C97.5070801,23.2319336 97.2814941,22.9902344 97.2814941,22.4584961 L97.2814941,18.9833984 L98.4094238,18.9833984 L98.4094238,18.2099609 L97.2814941,18.2099609 L97.2814941,16.9047852 L96.3469238,16.9047852 Z M99.4460449,24 L100.380615,24 L100.380615,20.4174805 C100.380615,19.6010742 100.874756,19.0532227 101.626709,19.0532227 C101.787842,19.0532227 102.034912,19.0854492 102.110107,19.1176758 L102.110107,18.1938477 C102.029541,18.1723633 101.863037,18.15625 101.750244,18.15625 C101.073486,18.15625 100.520264,18.5429688 100.348389,19.1499023 L100.326904,19.1499023 L100.326904,18.2099609 L99.4460449,18.2099609 L99.4460449,24 Z M107.760498,18.2099609 L106.825928,18.2099609 L106.825928,21.5722656 C106.825928,22.565918 106.19751,23.2211914 105.246826,23.2211914 C104.339111,23.2211914 103.8396,22.7109375 103.8396,21.7602539 L103.8396,18.2099609 L102.905029,18.2099609 L102.905029,21.9213867 C102.905029,23.2373047 103.69458,24.0537109 104.962158,24.0537109 C105.848389,24.0537109 106.498291,23.7099609 106.858154,23.0439453 L106.879639,23.0439453 L106.879639,24 L107.760498,24 L107.760498,18.2099609 Z M108.931396,19.8266602 C108.931396,20.6000977 109.425537,21.1103516 110.440674,21.3735352 L111.455811,21.6367188 C112.116455,21.8085938 112.358154,22.0234375 112.358154,22.4316406 C112.358154,22.9526367 111.864014,23.2802734 111.074463,23.2802734 C110.284912,23.2802734 109.806885,22.9633789 109.710205,22.3725586 L108.770264,22.3725586 C108.861572,23.3769531 109.763916,24.0537109 111.01001,24.0537109 C112.347412,24.0537109 113.298096,23.3554688 113.298096,22.3671875 C113.298096,21.5239258 112.87915,21.1157227 111.708252,20.8203125 L110.827393,20.6000977 C110.161377,20.4335938 109.849854,20.1704102 109.849854,19.7783203 C109.849854,19.2734375 110.327881,18.9350586 111.042236,18.9350586 C111.751221,18.9350586 112.223877,19.2734375 112.282959,19.815918 L113.179932,19.815918 C113.142334,18.8652344 112.250732,18.1616211 111.074463,18.1616211 C109.817627,18.1616211 108.931396,18.8491211 108.931396,19.8266602 L108.931396,19.8266602 Z M114.619385,16.9047852 L114.619385,18.2099609 L113.813721,18.2099609 L113.813721,18.9833984 L114.619385,18.9833984 L114.619385,22.4960938 C114.619385,23.6079102 115.027588,24.0429688 116.074951,24.0429688 C116.295166,24.0429688 116.563721,24.0214844 116.676514,23.9946289 L116.676514,23.2050781 C116.612061,23.2158203 116.386475,23.2319336 116.273682,23.2319336 C115.779541,23.2319336 115.553955,22.9902344 115.553955,22.4584961 L115.553955,18.9833984 L116.681885,18.9833984 L116.681885,18.2099609 L115.553955,18.2099609 L115.553955,16.9047852 L114.619385,16.9047852 Z M34.340332,29.9047852 L34.340332,31.2099609 L33.534668,31.2099609 L33.534668,31.9833984 L34.340332,31.9833984 L34.340332,35.4960938 C34.340332,36.6079102 34.7485352,37.0429688 35.7958984,37.0429688 C36.0161133,37.0429688 36.284668,37.0214844 36.3974609,36.9946289 L36.3974609,36.2050781 C36.3330078,36.2158203 36.1074219,36.2319336 35.9946289,36.2319336 C35.5004883,36.2319336 35.2749023,35.9902344 35.2749023,35.4584961 L35.2749023,31.9833984 L36.402832,31.9833984 L36.402832,31.2099609 L35.2749023,31.2099609 L35.2749023,29.9047852 L34.340332,29.9047852 Z M37.4931641,37 L38.4277344,37 L38.4277344,33.6699219 C38.4277344,32.6547852 39.0830078,31.9887695 40.0605469,31.9887695 C40.9790039,31.9887695 41.5268555,32.5473633 41.5268555,33.4711914 L41.5268555,37 L42.4614258,37 L42.4614258,33.3046875 C42.4614258,32.015625 41.6074219,31.15625 40.3398438,31.15625 C39.4536133,31.15625 38.809082,31.4946289 38.4492188,32.1499023 L38.4277344,32.1499023 L38.4277344,28.9111328 L37.4931641,28.9111328 L37.4931641,37 Z M43.7558594,37 L44.6904297,37 L44.6904297,31.2099609 L43.7558594,31.2099609 L43.7558594,37 Z M44.2231445,30.2753906 C44.5507812,30.2753906 44.8139648,30.0068359 44.8139648,29.6845703 C44.8139648,29.3569336 44.5507812,29.09375 44.2231445,29.09375 C43.9008789,29.09375 43.6323242,29.3569336 43.6323242,29.6845703 C43.6323242,30.0068359 43.9008789,30.2753906 44.2231445,30.2753906 L44.2231445,30.2753906 Z M45.9150391,32.8266602 C45.9150391,33.6000977 46.4091797,34.1103516 47.4243164,34.3735352 L48.4394531,34.6367188 C49.1000977,34.8085938 49.3417969,35.0234375 49.3417969,35.4316406 C49.3417969,35.9526367 48.8476562,36.2802734 48.0581055,36.2802734 C47.2685547,36.2802734 46.7905273,35.9633789 46.6938477,35.3725586 L45.7539062,35.3725586 C45.8452148,36.3769531 46.7475586,37.0537109 47.9936523,37.0537109 C49.3310547,37.0537109 50.2817383,36.3554688 50.2817383,35.3671875 C50.2817383,34.5239258 49.862793,34.1157227 48.6918945,33.8203125 L47.8110352,33.6000977 C47.1450195,33.4335938 46.8334961,33.1704102 46.8334961,32.7783203 C46.8334961,32.2734375 47.3115234,31.9350586 48.0258789,31.9350586 C48.7348633,31.9350586 49.2075195,32.2734375 49.2666016,32.815918 L50.1635742,32.815918 C50.1259766,31.8652344 49.234375,31.1616211 48.0581055,31.1616211 C46.8012695,31.1616211 45.9150391,31.8491211 45.9150391,32.8266602 L45.9150391,32.8266602 Z M58.7143555,33.0952148 C58.5961914,32.0800781 57.7207031,31.15625 56.2866211,31.15625 C54.7021484,31.15625 53.644043,32.3271484 53.644043,34.1049805 C53.644043,35.9257812 54.7075195,37.0537109 56.2973633,37.0537109 C57.6186523,37.0537109 58.5693359,36.2749023 58.7250977,35.1469727 L57.8066406,35.1469727 C57.6455078,35.8452148 57.1083984,36.2211914 56.3027344,36.2211914 C55.2929688,36.2211914 54.5947266,35.4208984 54.5947266,34.1049805 C54.5947266,32.8266602 55.2822266,31.9887695 56.2919922,31.9887695 C57.1621094,31.9887695 57.6777344,32.4775391 57.7958984,33.0952148 L58.7143555,33.0952148 Z M62.0068359,37.0537109 C63.6342773,37.0537109 64.6762695,35.8989258 64.6762695,34.1049805 C64.6762695,32.3056641 63.6342773,31.15625 62.0068359,31.15625 C60.3793945,31.15625 59.3374023,32.3056641 59.3374023,34.1049805 C59.3374023,35.8989258 60.3793945,37.0537109 62.0068359,37.0537109 L62.0068359,37.0537109 Z M62.0068359,36.2211914 C60.9326172,36.2211914 60.2880859,35.4316406 60.2880859,34.1049805 C60.2880859,32.7783203 60.9272461,31.9887695 62.0068359,31.9887695 C63.0864258,31.9887695 63.7255859,32.7729492 63.7255859,34.1049805 C63.7255859,35.4316406 63.0864258,36.2211914 62.0068359,36.2211914 L62.0068359,36.2211914 Z M65.6591797,37 L66.59375,37 L66.59375,33.4067383 C66.59375,32.5957031 67.1630859,31.9887695 67.9365234,31.9887695 C68.6616211,31.9887695 69.1396484,32.4506836 69.1396484,33.1489258 L69.1396484,37 L70.0742188,37 L70.0742188,33.3583984 C70.0742188,32.5634766 70.6274414,31.9887695 71.4008789,31.9887695 C72.1743164,31.9887695 72.6201172,32.4614258 72.6201172,33.2617188 L72.6201172,37 L73.5546875,37 L73.5546875,33.046875 C73.5546875,31.8974609 72.8134766,31.15625 71.6694336,31.15625 C70.8583984,31.15625 70.1762695,31.5644531 69.8486328,32.2519531 L69.8271484,32.2519531 C69.574707,31.5537109 68.9892578,31.15625 68.2050781,31.15625 C67.453125,31.15625 66.8354492,31.5322266 66.5615234,32.1499023 L66.5400391,32.1499023 L66.5400391,31.2099609 L65.6591797,31.2099609 L65.6591797,37 Z M77.5776367,31.15625 C76.7773438,31.15625 76.0415039,31.5483398 75.703125,32.1499023 L75.6816406,32.1499023 L75.6816406,31.2099609 L74.7954102,31.2099609 L74.7954102,38.9335938 L75.7299805,38.9335938 L75.7299805,36.0600586 L75.7514648,36.0600586 C76.1166992,36.6938477 76.7773438,37.0537109 77.5991211,37.0537109 C79.0600586,37.0537109 80.059082,35.8720703 80.059082,34.1049805 C80.059082,32.3378906 79.0546875,31.15625 77.5776367,31.15625 L77.5776367,31.15625 Z M77.4057617,36.2211914 C76.4067383,36.2211914 75.7246094,35.3671875 75.7246094,34.1049805 C75.7246094,32.8481445 76.4067383,31.9887695 77.4057617,31.9887695 C78.4262695,31.9887695 79.1030273,32.8266602 79.1030273,34.1049805 C79.1030273,35.3886719 78.4262695,36.2211914 77.4057617,36.2211914 L77.4057617,36.2211914 Z M85.8706055,31.2099609 L84.9360352,31.2099609 L84.9360352,34.5722656 C84.9360352,35.565918 84.3076172,36.2211914 83.3569336,36.2211914 C82.4492188,36.2211914 81.949707,35.7109375 81.949707,34.7602539 L81.949707,31.2099609 L81.0151367,31.2099609 L81.0151367,34.9213867 C81.0151367,36.2373047 81.8046875,37.0537109 83.0722656,37.0537109 C83.9584961,37.0537109 84.6083984,36.7099609 84.9682617,36.0439453 L84.9897461,36.0439453 L84.9897461,37 L85.8706055,37 L85.8706055,31.2099609 Z M87.4443359,29.9047852 L87.4443359,31.2099609 L86.6386719,31.2099609 L86.6386719,31.9833984 L87.4443359,31.9833984 L87.4443359,35.4960938 C87.4443359,36.6079102 87.8525391,37.0429688 88.8999023,37.0429688 C89.1201172,37.0429688 89.3886719,37.0214844 89.5014648,36.9946289 L89.5014648,36.2050781 C89.4370117,36.2158203 89.2114258,36.2319336 89.0986328,36.2319336 C88.6044922,36.2319336 88.3789062,35.9902344 88.3789062,35.4584961 L88.3789062,31.9833984 L89.5068359,31.9833984 L89.5068359,31.2099609 L88.3789062,31.2099609 L88.3789062,29.9047852 L87.4443359,29.9047852 Z M92.8530273,31.9780273 C93.7661133,31.9780273 94.3891602,32.6333008 94.4106445,33.6162109 L91.2255859,33.6162109 C91.2900391,32.6386719 91.9453125,31.9780273 92.8530273,31.9780273 L92.8530273,31.9780273 Z M94.3891602,35.3457031 C94.2226562,35.8881836 93.6586914,36.2319336 92.9335938,36.2319336 C91.9023438,36.2319336 91.2255859,35.5175781 91.2255859,34.4165039 L91.2255859,34.362793 L95.3828125,34.362793 L95.3828125,33.9975586 C95.3828125,32.246582 94.4160156,31.15625 92.8691406,31.15625 C91.2900391,31.15625 90.2587891,32.3325195 90.2587891,34.1264648 C90.2587891,35.9204102 91.284668,37.0537109 92.9121094,37.0537109 C94.1474609,37.0537109 95.1518555,36.3393555 95.3129883,35.3457031 L94.3891602,35.3457031 Z M96.3657227,37 L97.300293,37 L97.300293,33.4174805 C97.300293,32.6010742 97.7944336,32.0532227 98.5463867,32.0532227 C98.7075195,32.0532227 98.9545898,32.0854492 99.0297852,32.1176758 L99.0297852,31.1938477 C98.9492188,31.1723633 98.7827148,31.15625 98.6699219,31.15625 C97.9931641,31.15625 97.4399414,31.5429688 97.2680664,32.1499023 L97.246582,32.1499023 L97.246582,31.2099609 L96.3657227,31.2099609 L96.3657227,37 Z M99.5185547,31.2744141 L100.437012,31.2744141 C100.496094,30.5063477 101.011719,30.0283203 101.822754,30.0283203 C102.623047,30.0283203 103.138672,30.5170898 103.138672,31.1831055 C103.138672,31.7578125 102.896973,32.0961914 102.273926,32.4775391 C101.538086,32.9179688 101.194336,33.4013672 101.199707,34.1103516 L101.199707,34.6044922 L102.139648,34.6044922 L102.139648,34.2553711 C102.139648,33.6914062 102.333008,33.390625 103.015137,32.987793 C103.702637,32.5742188 104.137695,31.9780273 104.137695,31.1347656 C104.137695,30.0283203 103.213867,29.1904297 101.860352,29.1904297 C100.351074,29.1904297 99.5776367,30.1142578 99.5185547,31.2744141 L99.5185547,31.2744141 Z M101.672363,37.0537109 C102.021484,37.0537109 102.284668,36.7851562 102.284668,36.4414062 C102.284668,36.0922852 102.021484,35.8291016 101.672363,35.8291016 C101.328613,35.8291016 101.060059,36.0922852 101.060059,36.4414062 C101.060059,36.7851562 101.328613,37.0537109 101.672363,37.0537109 L101.672363,37.0537109 Z" id="Do-you-want-to-trust" fill="#252525"></path>
                </g>
            </g>
        </g>
    </g>
</svg>