<?xml version="1.0" encoding="UTF-8" standalone="no"?>
<svg width="240px" height="124px" viewBox="0 0 240 124" version="1.1" xmlns="http://www.w3.org/2000/svg" xmlns:xlink="http://www.w3.org/1999/xlink" xmlns:sketch="http://www.bohemiancoding.com/sketch/ns">
    <!-- Generator: Sketch 3.3 (11970) - http://www.bohemiancoding.com/sketch -->
    <title>iphone-horizontal</title>
    <desc>Created with Sketch.</desc>
    <defs></defs>
    <g id="Page-1" stroke="none" stroke-width="1" fill="none" fill-rule="evenodd" sketch:type="MSPage">
        <g id="onboarding-3" sketch:type="MSArtboardGroup" transform="translate(-576.000000, -282.000000)">
            <g id="iphone-horizontal" sketch:type="MSLayerGroup" transform="translate(696.000000, 344.000000) rotate(-90.000000) translate(-696.000000, -344.000000) translate(634.000000, 224.000000)">
                <path d="M109.411765,0 L14.5882353,0 C6.56470588,0 0,6.46706587 0,14.3712575 L0,225.628743 C0,233.532934 6.56470588,240 14.5882353,240 L109.411765,240 C117.435294,240 124,233.532934 124,225.628743 L124,14.3712575 C124,6.46706587 117.435294,0 109.411765,0 L109.411765,0 Z M62,5.02994012 C62.8752941,5.02994012 63.4588235,5.74850299 63.4588235,6.46706587 C63.4588235,7.18562874 62.7294118,7.90419162 62,7.90419162 C61.1247059,7.90419162 60.5411765,7.18562874 60.5411765,6.46706587 C60.5411765,5.74850299 61.1247059,5.02994012 62,5.02994012 L62,5.02994012 Z M51.0588235,10.9221557 L72.9411765,10.9221557 C73.6705882,10.9221557 74.2541176,11.497006 74.2541176,12.2155689 C74.2541176,12.9341317 73.6705882,13.508982 72.9411765,13.508982 L51.0588235,13.508982 C50.3294118,13.508982 49.7458824,12.9341317 49.7458824,12.2155689 C49.7458824,11.497006 50.3294118,10.9221557 51.0588235,10.9221557 L51.0588235,10.9221557 Z M118.018824,211.54491 C118.018824,212.407186 117.289412,213.269461 116.268235,213.269461 L6.71058824,213.269461 C5.83529412,213.269461 4.96,212.550898 4.96,211.54491 L4.96,23.8562874 C4.96,22.994012 5.68941176,22.1317365 6.71058824,22.1317365 L116.268235,22.1317365 C117.143529,22.1317365 118.018824,22.8502994 118.018824,23.8562874 L118.018824,211.54491 L118.018824,211.54491 Z" id="Shape" fill="#FFFFFF" sketch:type="MSShapeGroup"></path>
                <circle id="Oval-24" fill="#252525" sketch:type="MSShapeGroup" cx="62" cy="226" r="9"></circle>
            </g>
        </g>
    </g>
</svg>