<?xml version="1.0" encoding="UTF-8" standalone="no"?>
<svg width="262px" height="152px" viewBox="0 0 262 152" version="1.1" xmlns="http://www.w3.org/2000/svg" xmlns:xlink="http://www.w3.org/1999/xlink" xmlns:sketch="http://www.bohemiancoding.com/sketch/ns">
    <!-- Generator: Sketch 3.3 (11970) - http://www.bohemiancoding.com/sketch -->
    <title>main-window</title>
    <desc>Created with Sketch.</desc>
    <defs></defs>
    <g id="Page-1" stroke="none" stroke-width="1" fill="none" fill-rule="evenodd" sketch:type="MSPage">
        <g id="onboarding-2" sketch:type="MSArtboardGroup" transform="translate(-651.000000, -242.000000)">
            <g id="main-window" sketch:type="MSLayerGroup" transform="translate(651.000000, 242.000000)">
                <path d="M144.75,121 L116.75,121 C114.82325,121 113.25,122.55 113.25,124.444444 L113.25,143.388889 C113.25,145.283333 114.7935,147.139889 116.68175,147.510167 L124.33275,149.017111 C124.33275,149.017111 117.7475,152 122,152 L139.5,152 C143.7525,152 137.1655,149.017111 137.1655,149.017111 L144.81825,147.510167 C146.70475,147.139889 148.25,145.283333 148.25,143.388889 L148.25,124.444444 C148.25,122.55 146.675,121 144.75,121 L144.75,121 Z M145.25,144 L117.25,144 L117.25,125 L145.25,125 L145.25,144 L145.25,144 Z" id="Shape" fill="#FFFFFF" sketch:type="MSShapeGroup"></path>
                <path d="M166,77 C166,79.2083984 163.984448,81 161.5,81 C159.014124,81 157,79.2083984 157,77 C157,74.7916016 159.014124,73 161.5,73 C163.984448,73 166,74.7916016 166,77 L166,77 Z M174,67.25 L174,86.75 C174,88.5368653 172.536865,90 170.75,90 L151.25,90 C149.463135,90 148,88.5368653 148,86.75 L148,67.25 C148,65.4631347 149.463135,64 151.25,64 L170.75,64 C172.536865,64 174,65.4631347 174,67.25 L174,67.25 Z M169,77 C169,73.1336127 165.641032,70 161.5,70 C157.357442,70 154,73.1336127 154,77 C154,80.8663873 157.357442,84 161.5,84 C165.641032,84 169,80.8663873 169,77 L169,77 Z M179.691915,69.1438084 L176,71.6233255 L176,83.3766159 L179.691915,85.8562354 C180.251099,86.2317244 181,85.827951 181,85.1509643 L181,69.8490797 C181,69.172093 180.251099,68.7682172 179.691915,69.1438084 L179.691915,69.1438084 Z" id="Shape" fill="#FFFFFF" sketch:type="MSShapeGroup"></path>
                <path d="M172,12.6898243 L172,17.4443889 C172,21.3004666 169.175873,25.4272976 162.719744,25.9963967 L162.719744,30.5509143 L167.188843,30.5509143 C167.566997,30.5509143 167.876397,30.8613321 167.876397,31.2407315 L167.876397,33.3101829 C167.876397,33.6913068 167.565279,34 167.188843,34 L154.812876,34 C154.434721,34 154.125322,33.6895823 154.125322,33.3101829 L154.125322,31.2407315 C154.125322,30.8613321 154.434721,30.5509143 154.811157,30.5509143 L159.281975,30.5509143 L159.281975,25.9963967 C152.822408,25.4272976 150,21.3004666 150,17.4443889 L150,12.6898243 C150,12.3087003 150.309399,12.0000072 150.687554,12.0000072 L151.718884,12.0000072 C152.097039,12.0000072 152.406438,12.3104249 152.406438,12.6898243 L152.406438,17.4443889 C152.406438,19.7483781 154.216423,23.652743 161.000859,23.652743 C167.783577,23.652743 169.595281,19.7483781 169.595281,17.4443889 L169.595281,12.6898243 C169.595281,12.3087003 169.90468,12.0000072 170.281116,12.0000072 L171.314165,12.0000072 C171.69232,11.9982826 172,12.3087003 172,12.6898243 L172,12.6898243 Z M161,20 C164.91,20 166,18.3774695 166,17.309794 L166,12 L156,12 L156,17.309794 C156,18.3774695 157.086667,20 161,20 L161,20 Z M166,2.73878809 C166,1.64840808 164.91,0 161,0 C157.086667,0 156,1.64840808 156,2.73878809 L156,10 L166,10 L166,2.73878809 L166,2.73878809 Z" id="Shape" fill="#FFFFFF" sketch:type="MSShapeGroup"></path>
                <rect id="Rectangle-20" fill="#FFFFFF" sketch:type="MSShapeGroup" x="0" y="0" width="73" height="150" rx="2"></rect>
                <g id="Oval-28-+-Oval-28-Copy" transform="translate(28.500000, 17.000000)" sketch:type="MSShapeGroup">
                    <circle id="Oval-28" opacity="0.114214086" fill="#252525" cx="8" cy="8" r="8"></circle>
                    <circle id="Oval-28-Copy" fill="#FF5E5E" cx="8" cy="8" r="5.33333333"></circle>
                </g>
                <circle id="Oval-25" fill="#252525" sketch:type="MSShapeGroup" cx="7" cy="7" r="3"></circle>
                <circle id="Oval-25-Copy" fill="#252525" sketch:type="MSShapeGroup" cx="15" cy="7" r="3"></circle>
                <circle id="Oval-25-Copy-2" fill="#252525" sketch:type="MSShapeGroup" cx="23" cy="7" r="3"></circle>
                <rect id="Rectangle-21-Copy-3" fill="#252525" sketch:type="MSShapeGroup" x="4" y="68" width="35" height="5" rx="1"></rect>
                <g id="Rectangle-21-Copy-+-Rectangle-21-Copy-2" transform="translate(45.000000, 41.000000)" fill="#252525" sketch:type="MSShapeGroup">
                    <rect id="Rectangle-21-Copy" x="13" y="0" width="12" height="24" rx="1"></rect>
                    <rect id="Rectangle-21-Copy-2" x="0" y="0" width="12" height="24" rx="1"></rect>
                </g>
                <path d="M138,22 L77,47" id="Line" stroke="#FFFFFF" stroke-width="2" stroke-linecap="round" stroke-linejoin="round" stroke-dasharray="5" sketch:type="MSShapeGroup"></path>
                <path id="Line-decoration-1" d="M139.13767,24.7759154 L136.86233,19.2240846" stroke="#FFFFFF" stroke-width="2" stroke-linecap="round" stroke-linejoin="round" stroke-dasharray="5"></path>
                <g id="Line-Copy-3-+-Line-Copy-4" transform="translate(46.000000, 68.000000)" stroke-width="2" stroke-linecap="round" stroke-linejoin="round" stroke-dasharray="5">
                    <path d="M84.6171171,5.66666667 L0,0" id="Line-Copy-3" stroke="#FFFFFF" sketch:type="MSShapeGroup"></path>
                    <path id="Line-Copy-3-decoration-1" d="M84.4166611,8.65996207 L84.8175731,2.67337126" stroke="#FFFFFF"></path>
                    <path d="M22,1 L0,0" id="Line-Copy-4" stroke="#252525" sketch:type="MSShapeGroup"></path>
                </g>
                <g id="Line-Copy-+-Line-Copy-2" transform="translate(38.000000, 75.000000)" stroke-width="2" stroke-linecap="round" stroke-linejoin="round" stroke-dasharray="5">
                    <path d="M60,59 L24,23" id="Line-Copy" stroke="#FFFFFF" sketch:type="MSShapeGroup"></path>
                    <path id="Line-Copy-decoration-1" d="M57.8786797,61.1213203 L62.1213203,56.8786797" stroke="#FFFFFF"></path>
                    <path d="M34.5,33.5 L0,0" id="Line-Copy-2" stroke="#252525" sketch:type="MSShapeGroup"></path>
                </g>
                <g id="Rectangle-21-+-Shape" transform="translate(4.000000, 41.000000)" sketch:type="MSShapeGroup">
                    <rect id="Rectangle-21" fill="#252525" x="0" y="0" width="38" height="24" rx="1"></rect>
                    <path d="M16.2194444,5.15178674 C14.9776667,5.99222862 14.644,7.32292825 14.7051111,8.03107835 C14.7833333,8.89708922 14.9764444,10.0243486 14.9764444,10.0243486 C14.9764444,10.0243486 14.5938889,10.2133368 14.5938889,10.9737366 C14.7271111,12.882518 15.4286667,12.0587515 15.5728889,12.8958583 C15.92,14.9124741 16.7132222,14.5533964 16.7132222,15.6539751 C16.7132222,17.4871611 15.8821111,18.3442784 13.2873333,19.3603682 C10.684,20.3809048 8,21.6649132 8,23.8883044 L8,25 L30,25 L30,23.8883044 C30,21.6649132 27.3147778,20.3809048 24.7102222,19.3614799 C22.1154444,18.3453901 21.2867778,17.4893845 21.2867778,15.6550868 C21.2867778,14.5545081 22.0775556,14.9135858 22.4258889,12.89697 C22.5713333,12.0598632 23.2716667,12.8836296 23.4073333,10.9748483 C23.4073333,10.2144485 23.0235556,10.0254603 23.0235556,10.0254603 C23.0235556,10.0254603 23.2166667,8.89820092 23.2936667,8.03219004 C23.3731111,7.12393474 22.8072222,5.18513761 20.4825556,4.59038046 C20.0755556,4.21240396 19.8005556,3.61097664 21.0521111,3.00732593 C18.3143333,2.89059789 17.6775556,4.19350513 16.2194444,5.15178674 L16.2194444,5.15178674 Z" id="Shape" fill="#FFFFFF"></path>
                </g>
                <path d="M161.444336,136.320312 C161.546875,138.015625 162.996094,139.157227 165.060547,139.157227 C167.241211,139.157227 168.635742,138.022461 168.635742,136.292969 C168.635742,134.918945 167.801758,134.160156 165.819336,133.661133 L164.75293,133.387695 C163.303711,133.018555 162.688477,132.519531 162.688477,131.671875 C162.688477,130.584961 163.700195,129.826172 165.067383,129.826172 C166.46875,129.826172 167.453125,130.564453 167.541992,131.678711 L168.478516,131.678711 C168.423828,130.113281 167.015625,128.978516 165.094727,128.978516 C163.15332,128.978516 161.717773,130.113281 161.717773,131.706055 C161.717773,133.004883 162.53125,133.777344 164.356445,134.242188 L165.580078,134.556641 C167.042969,134.925781 167.678711,135.472656 167.678711,136.395508 C167.678711,137.50293 166.619141,138.30957 165.142578,138.30957 C163.597656,138.30957 162.483398,137.50293 162.380859,136.320312 L161.444336,136.320312 Z M175.861328,133.955078 C175.683594,132.65625 174.555664,131.555664 172.833008,131.555664 C170.836914,131.555664 169.524414,133.039062 169.524414,135.31543 C169.524414,137.639648 170.84375,139.082031 172.84668,139.082031 C174.473633,139.082031 175.65625,138.118164 175.868164,136.730469 L174.972656,136.730469 C174.760742,137.694336 173.974609,138.268555 172.84668,138.268555 C171.404297,138.268555 170.447266,137.140625 170.447266,135.31543 C170.447266,133.524414 171.397461,132.362305 172.839844,132.362305 C174.015625,132.362305 174.788086,133.052734 174.96582,133.955078 L175.861328,133.955078 Z M177.043945,139 L177.946289,139 L177.946289,134.433594 C177.946289,133.244141 178.616211,132.423828 179.662109,132.423828 C179.915039,132.423828 180.21582,132.478516 180.332031,132.533203 L180.332031,131.630859 C180.21582,131.59668 179.976562,131.555664 179.785156,131.555664 C178.869141,131.555664 178.171875,132.068359 177.918945,132.943359 L177.891602,132.943359 L177.891602,131.637695 L177.043945,131.637695 L177.043945,139 Z M184.276367,132.355469 C185.609375,132.355469 186.511719,133.339844 186.525391,134.802734 L181.945312,134.802734 C182.027344,133.339844 182.957031,132.355469 184.276367,132.355469 L184.276367,132.355469 Z M186.477539,136.915039 C186.258789,137.72168 185.472656,138.282227 184.365234,138.282227 C182.902344,138.282227 181.945312,137.256836 181.945312,135.588867 L181.945312,135.541016 L187.46875,135.541016 L187.46875,135.144531 C187.46875,132.957031 186.224609,131.555664 184.290039,131.555664 C182.307617,131.555664 181.008789,133.052734 181.008789,135.335938 C181.008789,137.65332 182.307617,139.082031 184.344727,139.082031 C185.944336,139.082031 187.154297,138.172852 187.373047,136.915039 L186.477539,136.915039 Z M191.625,132.355469 C192.958008,132.355469 193.860352,133.339844 193.874023,134.802734 L189.293945,134.802734 C189.375977,133.339844 190.305664,132.355469 191.625,132.355469 L191.625,132.355469 Z M193.826172,136.915039 C193.607422,137.72168 192.821289,138.282227 191.713867,138.282227 C190.250977,138.282227 189.293945,137.256836 189.293945,135.588867 L189.293945,135.541016 L194.817383,135.541016 L194.817383,135.144531 C194.817383,132.957031 193.573242,131.555664 191.638672,131.555664 C189.65625,131.555664 188.357422,133.052734 188.357422,135.335938 C188.357422,137.65332 189.65625,139.082031 191.693359,139.082031 C193.292969,139.082031 194.50293,138.172852 194.72168,136.915039 L193.826172,136.915039 Z M196.075195,139 L196.977539,139 L196.977539,134.672852 C196.977539,133.298828 197.859375,132.362305 199.171875,132.362305 C200.422852,132.362305 201.181641,133.107422 201.181641,134.40625 L201.181641,139 L202.083984,139 L202.083984,134.262695 C202.083984,132.594727 201.044922,131.555664 199.424805,131.555664 C198.235352,131.555664 197.360352,132.095703 196.950195,133.011719 L196.922852,133.011719 L196.922852,131.637695 L196.075195,131.637695 L196.075195,139 Z" id="Screen" fill="#FFFFFF" sketch:type="MSShapeGroup"></path>
                <path d="M201.921875,82.1572266 C204.061523,82.1572266 205.572266,81.0019531 205.920898,79.0810547 L204.984375,79.0810547 C204.69043,80.4482422 203.500977,81.2890625 201.928711,81.2890625 C199.830078,81.2890625 198.483398,79.6416016 198.483398,77.0439453 C198.483398,74.4804688 199.830078,72.8466797 201.921875,72.8466797 C203.453125,72.8466797 204.710938,73.8447266 204.984375,75.2666016 L205.920898,75.2666016 C205.654297,73.3388672 204.006836,71.9785156 201.921875,71.9785156 C199.242188,71.9785156 197.526367,73.9541016 197.526367,77.0439453 C197.526367,80.1679688 199.235352,82.1572266 201.921875,82.1572266 L201.921875,82.1572266 Z M209.537109,81.2890625 C208.511719,81.2890625 207.814453,80.7490234 207.814453,79.9560547 C207.814453,79.1289062 208.470703,78.6503906 209.708008,78.5683594 L211.861328,78.4179688 L211.861328,79.2314453 C211.861328,80.3935547 210.856445,81.2890625 209.537109,81.2890625 L209.537109,81.2890625 Z M209.359375,82.0820312 C210.487305,82.0820312 211.485352,81.4873047 211.881836,80.5917969 L211.902344,80.5917969 L211.902344,82 L212.763672,82 L212.763672,76.9824219 C212.763672,75.4990234 211.69043,74.5556641 210.001953,74.5556641 C208.457031,74.5556641 207.294922,75.4716797 207.219727,76.7636719 L208.087891,76.7636719 C208.251953,75.8886719 208.969727,75.3623047 209.995117,75.3623047 C211.18457,75.3623047 211.861328,75.984375 211.861328,77.0576172 L211.861328,77.6865234 L209.598633,77.8369141 C207.834961,77.9599609 206.891602,78.6914062 206.891602,79.9492188 C206.891602,81.2207031 207.889648,82.0820312 209.359375,82.0820312 L209.359375,82.0820312 Z M214.349609,82 L215.251953,82 L215.251953,77.5087891 C215.251953,76.2441406 216.038086,75.3623047 217.131836,75.3623047 C218.143555,75.3623047 218.833984,76.0664062 218.833984,77.1191406 L218.833984,82 L219.736328,82 L219.736328,77.3994141 C219.736328,76.2099609 220.501953,75.3623047 221.602539,75.3623047 C222.682617,75.3623047 223.318359,76.0595703 223.318359,77.2080078 L223.318359,82 L224.227539,82 L224.227539,77.0029297 C224.227539,75.5126953 223.28418,74.5556641 221.848633,74.5556641 C220.741211,74.5556641 219.866211,75.1914062 219.517578,76.1005859 L219.49707,76.1005859 C219.216797,75.1708984 218.4375,74.5556641 217.371094,74.5556641 C216.325195,74.5556641 215.539062,75.1435547 215.224609,76.0117188 L215.197266,76.0117188 L215.197266,74.6376953 L214.349609,74.6376953 L214.349609,82 Z M228.711914,75.3554688 C230.044922,75.3554688 230.947266,76.3398438 230.960938,77.8027344 L226.380859,77.8027344 C226.462891,76.3398438 227.392578,75.3554688 228.711914,75.3554688 L228.711914,75.3554688 Z M230.913086,79.9150391 C230.694336,80.7216797 229.908203,81.2822266 228.800781,81.2822266 C227.337891,81.2822266 226.380859,80.2568359 226.380859,78.5888672 L226.380859,78.5410156 L231.904297,78.5410156 L231.904297,78.1445312 C231.904297,75.9570312 230.660156,74.5556641 228.725586,74.5556641 C226.743164,74.5556641 225.444336,76.0527344 225.444336,78.3359375 C225.444336,80.6533203 226.743164,82.0820312 228.780273,82.0820312 C230.379883,82.0820312 231.589844,81.1728516 231.808594,79.9150391 L230.913086,79.9150391 Z M233.162109,82 L234.064453,82 L234.064453,77.4335938 C234.064453,76.2441406 234.734375,75.4238281 235.780273,75.4238281 C236.033203,75.4238281 236.333984,75.4785156 236.450195,75.5332031 L236.450195,74.6308594 C236.333984,74.5966797 236.094727,74.5556641 235.90332,74.5556641 C234.987305,74.5556641 234.290039,75.0683594 234.037109,75.9433594 L234.009766,75.9433594 L234.009766,74.6376953 L233.162109,74.6376953 L233.162109,82 Z M239.847656,81.2890625 C238.822266,81.2890625 238.125,80.7490234 238.125,79.9560547 C238.125,79.1289062 238.78125,78.6503906 240.018555,78.5683594 L242.171875,78.4179688 L242.171875,79.2314453 C242.171875,80.3935547 241.166992,81.2890625 239.847656,81.2890625 L239.847656,81.2890625 Z M239.669922,82.0820312 C240.797852,82.0820312 241.795898,81.4873047 242.192383,80.5917969 L242.212891,80.5917969 L242.212891,82 L243.074219,82 L243.074219,76.9824219 C243.074219,75.4990234 242.000977,74.5556641 240.3125,74.5556641 C238.767578,74.5556641 237.605469,75.4716797 237.530273,76.7636719 L238.398438,76.7636719 C238.5625,75.8886719 239.280273,75.3623047 240.305664,75.3623047 C241.495117,75.3623047 242.171875,75.984375 242.171875,77.0576172 L242.171875,77.6865234 L239.90918,77.8369141 C238.145508,77.9599609 237.202148,78.6914062 237.202148,79.9492188 C237.202148,81.2207031 238.200195,82.0820312 239.669922,82.0820312 L239.669922,82.0820312 Z" id="Camera" fill="#FFFFFF" sketch:type="MSShapeGroup"></path>
                <path d="M201.424805,11.1357422 L200.344727,11.1357422 L196.694336,19.7695312 L196.65332,19.7695312 L192.996094,11.1357422 L191.922852,11.1357422 L191.922852,21 L192.797852,21 L192.797852,12.90625 L192.838867,12.90625 L196.263672,20.9521484 L197.077148,20.9521484 L200.508789,12.90625 L200.549805,12.90625 L200.549805,21 L201.424805,21 L201.424805,11.1357422 Z M203.229492,21 L204.131836,21 L204.131836,13.6376953 L203.229492,13.6376953 L203.229492,21 Z M203.680664,12.1816406 C204.015625,12.1816406 204.289062,11.9013672 204.289062,11.5732422 C204.289062,11.2314453 204.015625,10.9580078 203.680664,10.9580078 C203.345703,10.9580078 203.06543,11.2314453 203.06543,11.5732422 C203.06543,11.9013672 203.345703,12.1816406 203.680664,12.1816406 L203.680664,12.1816406 Z M211.794922,15.9550781 C211.617188,14.65625 210.489258,13.5556641 208.766602,13.5556641 C206.770508,13.5556641 205.458008,15.0390625 205.458008,17.3154297 C205.458008,19.6396484 206.777344,21.0820312 208.780273,21.0820312 C210.407227,21.0820312 211.589844,20.1181641 211.801758,18.7304688 L210.90625,18.7304688 C210.694336,19.6943359 209.908203,20.2685547 208.780273,20.2685547 C207.337891,20.2685547 206.380859,19.140625 206.380859,17.3154297 C206.380859,15.5244141 207.331055,14.3623047 208.773438,14.3623047 C209.949219,14.3623047 210.72168,15.0527344 210.899414,15.9550781 L211.794922,15.9550781 Z M212.977539,21 L213.879883,21 L213.879883,16.4335938 C213.879883,15.2441406 214.549805,14.4238281 215.595703,14.4238281 C215.848633,14.4238281 216.149414,14.4785156 216.265625,14.5332031 L216.265625,13.6308594 C216.149414,13.5966797 215.910156,13.5556641 215.71875,13.5556641 C214.802734,13.5556641 214.105469,14.0683594 213.852539,14.9433594 L213.825195,14.9433594 L213.825195,13.6376953 L212.977539,13.6376953 L212.977539,21 Z M220.285156,21.0820312 C222.308594,21.0820312 223.634766,19.6123047 223.634766,17.3154297 C223.634766,15.0185547 222.308594,13.5556641 220.285156,13.5556641 C218.261719,13.5556641 216.942383,15.0185547 216.942383,17.3154297 C216.942383,19.6123047 218.261719,21.0820312 220.285156,21.0820312 L220.285156,21.0820312 Z M220.285156,20.2685547 C218.794922,20.2685547 217.865234,19.1542969 217.865234,17.3154297 C217.865234,15.4833984 218.794922,14.3623047 220.285156,14.3623047 C221.782227,14.3623047 222.711914,15.4765625 222.711914,17.3154297 C222.711914,19.1542969 221.782227,20.2685547 220.285156,20.2685547 L220.285156,20.2685547 Z M228.317383,13.5556641 C227.148438,13.5556641 226.157227,14.2255859 225.767578,15.1621094 L225.74707,15.1621094 L225.74707,13.6376953 L224.892578,13.6376953 L224.892578,23.4130859 L225.794922,23.4130859 L225.794922,19.4824219 L225.81543,19.4824219 C226.225586,20.4394531 227.148438,21.0820312 228.331055,21.0820312 C230.183594,21.0820312 231.455078,19.5644531 231.455078,17.3154297 C231.455078,15.0732422 230.176758,13.5556641 228.317383,13.5556641 L228.317383,13.5556641 Z M228.160156,20.2685547 C226.758789,20.2685547 225.788086,19.0722656 225.788086,17.3154297 C225.788086,15.5722656 226.758789,14.3623047 228.160156,14.3623047 C229.582031,14.3623047 230.532227,15.5517578 230.532227,17.3222656 C230.532227,19.0927734 229.582031,20.2685547 228.160156,20.2685547 L228.160156,20.2685547 Z M232.78125,21 L233.683594,21 L233.683594,16.7070312 C233.683594,15.3056641 234.599609,14.3623047 235.932617,14.3623047 C237.19043,14.3623047 237.983398,15.1416016 237.983398,16.4267578 L237.983398,21 L238.892578,21 L238.892578,16.2832031 C238.892578,14.6357422 237.798828,13.5556641 236.185547,13.5556641 C235.00293,13.5556641 234.114258,14.0957031 233.704102,15.0117188 L233.683594,15.0117188 L233.683594,10.7050781 L232.78125,10.7050781 L232.78125,21 Z M243.452148,21.0820312 C245.475586,21.0820312 246.801758,19.6123047 246.801758,17.3154297 C246.801758,15.0185547 245.475586,13.5556641 243.452148,13.5556641 C241.428711,13.5556641 240.109375,15.0185547 240.109375,17.3154297 C240.109375,19.6123047 241.428711,21.0820312 243.452148,21.0820312 L243.452148,21.0820312 Z M243.452148,20.2685547 C241.961914,20.2685547 241.032227,19.1542969 241.032227,17.3154297 C241.032227,15.4833984 241.961914,14.3623047 243.452148,14.3623047 C244.949219,14.3623047 245.878906,15.4765625 245.878906,17.3154297 C245.878906,19.1542969 244.949219,20.2685547 243.452148,20.2685547 L243.452148,20.2685547 Z M248.05957,21 L248.961914,21 L248.961914,16.6728516 C248.961914,15.2988281 249.84375,14.3623047 251.15625,14.3623047 C252.407227,14.3623047 253.166016,15.1074219 253.166016,16.40625 L253.166016,21 L254.068359,21 L254.068359,16.2626953 C254.068359,14.5947266 253.029297,13.5556641 251.40918,13.5556641 C250.219727,13.5556641 249.344727,14.0957031 248.93457,15.0117188 L248.907227,15.0117188 L248.907227,13.6376953 L248.05957,13.6376953 L248.05957,21 Z M258.552734,14.3554688 C259.885742,14.3554688 260.788086,15.3398438 260.801758,16.8027344 L256.22168,16.8027344 C256.303711,15.3398438 257.233398,14.3554688 258.552734,14.3554688 L258.552734,14.3554688 Z M260.753906,18.9150391 C260.535156,19.7216797 259.749023,20.2822266 258.641602,20.2822266 C257.178711,20.2822266 256.22168,19.2568359 256.22168,17.5888672 L256.22168,17.5410156 L261.745117,17.5410156 L261.745117,17.1445312 C261.745117,14.9570312 260.500977,13.5556641 258.566406,13.5556641 C256.583984,13.5556641 255.285156,15.0527344 255.285156,17.3359375 C255.285156,19.6533203 256.583984,21.0820312 258.621094,21.0820312 C260.220703,21.0820312 261.430664,20.1728516 261.649414,18.9150391 L260.753906,18.9150391 Z" id="Microphone" fill="#FFFFFF" sketch:type="MSShapeGroup"></path>
            </g>
        </g>
    </g>
</svg>