<?xml version="1.0" encoding="UTF-8" standalone="no"?>
<svg width="70px" height="34px" viewBox="0 0 70 34" version="1.1" xmlns="http://www.w3.org/2000/svg" xmlns:xlink="http://www.w3.org/1999/xlink" xmlns:sketch="http://www.bohemiancoding.com/sketch/ns">
    <!-- Generator: Sketch 3.3 (11970) - http://www.bohemiancoding.com/sketch -->
    <title>mark-white</title>
    <desc>Created with Sketch.</desc>
    <defs></defs>
    <g id="Page-1" stroke="none" stroke-width="1" fill="none" fill-rule="evenodd" sketch:type="MSPage">
        <g id="onboarding-6" sketch:type="MSArtboardGroup" transform="translate(-747.000000, -202.000000)" fill="#FFFFFF">
            <g id="mark-white" sketch:type="MSLayerGroup" transform="translate(747.070312, 202.312500)">
                <path d="M53.421875,0.109583333 C49.64125,0.109583333 44.9839583,2.41083333 39.0938542,7.1503125 C37.5322917,8.43791667 36.1077083,9.64333333 34.9022917,10.7391667 C33.7516667,9.67072917 32.3270833,8.43791667 30.7107292,7.1503125 C24.9028125,2.41083333 20.1633333,0.109583333 16.4648958,0.109583333 C7.53385417,0.109583333 0.2465625,7.4790625 0.2465625,16.4648958 C0.2465625,25.5329167 7.53385417,32.8202083 16.4648958,32.8202083 C20.2455208,32.8202083 24.9028125,30.5189583 30.7929167,25.7794792 C32.3544792,24.491875 33.7790625,23.2864583 34.9844792,22.190625 C36.1351042,23.2590625 37.5596875,24.491875 39.1760417,25.7794792 C45.0661458,30.5189583 49.7234375,32.8202083 53.5040625,32.8202083 C62.4351042,32.8202083 69.7223958,25.4507292 69.7223958,16.4648958 C69.6402083,7.4790625 62.3255208,0.109583333 53.421875,0.109583333 L53.421875,0.109583333 Z M25.5603125,19.2866667 C19.4236458,24.163125 16.8484375,24.4096875 16.4375,24.4096875 C12.1089583,24.4096875 8.60229167,20.8208333 8.60229167,16.4375 C8.60229167,12.0541667 12.1363542,8.49270833 16.4375,8.49270833 C16.9032292,8.49270833 19.4236458,8.76666667 25.5603125,13.6157292 C26.7657292,14.5745833 27.9163542,15.5882292 28.8752083,16.4648958 C27.8615625,17.3415625 26.793125,18.2730208 25.5603125,19.2866667 L25.5603125,19.2866667 Z M37.2583333,19.9989583 L31.9161458,19.2866667 L31.5052083,13.971875 L34.9022917,10.7117708 L35.6145833,16.0265625 L40.9841667,16.4375 L37.2583333,19.9989583 L37.2583333,19.9989583 Z M53.421875,24.4370833 C52.9561458,24.4370833 50.4357292,24.163125 44.2990625,19.3140625 C43.0936458,18.3552083 41.9430208,17.3415625 40.9841667,16.4648958 C41.9430208,15.5882292 43.06625,14.629375 44.216875,13.6979167 C50.3535417,8.76666667 52.92875,8.49270833 53.3396875,8.49270833 C57.6682292,8.49270833 61.1748958,12.0815625 61.1748958,16.4648958 C61.2570833,20.8482292 57.7230208,24.4370833 53.421875,24.4370833 L53.421875,24.4370833 Z" id="Shape" sketch:type="MSShapeGroup"></path>
            </g>
        </g>
    </g>
</svg>