<?xml version="1.0" encoding="UTF-8" standalone="no"?>
<svg width="230px" height="47px" viewBox="0 0 230 47" version="1.1" xmlns="http://www.w3.org/2000/svg" xmlns:xlink="http://www.w3.org/1999/xlink" xmlns:sketch="http://www.bohemiancoding.com/sketch/ns">
    <!-- Generator: Sketch 3.3 (11970) - http://www.bohemiancoding.com/sketch -->
    <title>medium-icons</title>
    <desc>Created with Sketch.</desc>
    <defs></defs>
    <g id="Page-1" stroke="none" stroke-width="1" fill="none" fill-rule="evenodd" sketch:type="MSPage">
        <g id="onboarding-2" sketch:type="MSArtboardGroup" transform="translate(-667.000000, -313.000000)" fill="#FFFFFF">
            <g id="medium-icons" sketch:type="MSLayerGroup" transform="translate(667.500000, 313.000000)">
                <path d="M127,1 L87,1 C84.2475,1 82,3.2 82,5.88888889 L82,32.7777778 C82,35.4666667 84.205,38.1017778 86.9025,38.6273333 L97.8325,40.7662222 C97.8325,40.7662222 88.425,45 94.5,45 L119.5,45 C125.575,45 116.165,40.7662222 116.165,40.7662222 L127.0975,38.6273333 C129.7925,38.1017778 132,35.4666667 132,32.7777778 L132,5.88888889 C132,3.2 129.75,1 127,1 L127,1 Z M127.555556,32.9 L87.5555556,32.9 L87.5555556,6.5 L127.555556,6.5 L127.555556,32.9 L127.555556,32.9 Z" id="Shape" sketch:type="MSShapeGroup"></path>
                <path d="M208.1,23.5 C208.1,26.5192947 205.636548,28.96875 202.6,28.96875 C199.561707,28.96875 197.1,26.5192947 197.1,23.5 C197.1,20.4807053 199.561707,18.03125 202.6,18.03125 C205.636548,18.03125 208.1,20.4807053 208.1,23.5 L208.1,23.5 Z M220.2,10.375 L220.2,36.625 C220.2,39.0303956 218.219141,41 215.8,41 L189.4,41 C186.980859,41 185,39.0303956 185,36.625 L185,10.375 C185,7.96960444 186.980859,6 189.4,6 L215.8,6 C218.219141,6 220.2,7.96960444 220.2,10.375 L220.2,10.375 Z M212.5,23.5 C212.5,18.0628928 208.066162,13.65625 202.6,13.65625 C197.131824,13.65625 192.7,18.0628928 192.7,23.5 C192.7,28.9371072 197.131824,33.34375 202.6,33.34375 C208.066162,33.34375 212.5,28.9371072 212.5,23.5 L212.5,23.5 Z M227.273328,12.7567999 L222.4,16.1068828 L222.4,31.986788 L227.273328,35.3370093 C228.01145,35.8443335 229,35.2987941 229,34.3841154 L229,13.709694 C229,12.7950154 228.01145,12.2493376 227.273328,12.7567999 L227.273328,12.7567999 Z" id="Shape" sketch:type="MSShapeGroup"></path>
                <path d="M30,17.96105 L30,24.44 C30,29.6946 26.1489179,35.31815 17.3451051,36.09365 L17.3451051,42.3 L23.4393312,42.3 C23.9549965,42.3 24.3769044,42.723 24.3769044,43.24 L24.3769044,46.06 C24.3769044,46.57935 23.9526526,47 23.4393312,47 L6.56301274,47 C6.04734745,47 5.62543949,46.577 5.62543949,46.06 L5.62543949,43.24 C5.62543949,42.723 6.04734745,42.3 6.5606688,42.3 L12.6572388,42.3 L12.6572388,36.09365 C3.84873818,35.31815 -2.13162821e-13,29.6946 -2.13162821e-13,24.44 L-2.13162821e-13,17.96105 C-2.13162821e-13,17.4417 0.421907962,17.02105 0.937573248,17.02105 L2.34393312,17.02105 C2.85959841,17.02105 3.28150637,17.44405 3.28150637,17.96105 L3.28150637,24.44 C3.28150637,27.5796 5.74966794,32.9 15.001172,32.9 C24.2503321,32.9 26.7208376,27.5796 26.7208376,24.44 L26.7208376,17.96105 C26.7208376,17.4417 27.1427455,17.02105 27.6560669,17.02105 L29.0647707,17.02105 C29.580436,17.0187 30,17.4417 30,17.96105 L30,17.96105 Z M15.001172,28.2 C20.5000391,28.2 22.0329713,25.93225 22.0329713,24.44 L22.0329713,17.0187 L7.96937261,17.0187 L7.96937261,24.44 C7.96937261,25.93225 9.497617,28.2 15.001172,28.2 L15.001172,28.2 Z M22.0329713,3.76 C22.0329713,2.26305 20.5000391,0 15.001172,0 C9.497617,0 7.96937261,2.26305 7.96937261,3.76 L7.96937261,13.7287 L22.0329713,13.7287 L22.0329713,3.76 L22.0329713,3.76 Z" id="Shape" sketch:type="MSShapeGroup"></path>
            </g>
        </g>
    </g>
</svg>