<?xml version="1.0" encoding="UTF-8" standalone="no"?>
<svg width="246px" height="165px" viewBox="0 0 246 165" version="1.1" xmlns="http://www.w3.org/2000/svg" xmlns:xlink="http://www.w3.org/1999/xlink" xmlns:sketch="http://www.bohemiancoding.com/sketch/ns">
    <!-- Generator: Sketch 3.3 (11970) - http://www.bohemiancoding.com/sketch -->
    <title>start-pause</title>
    <desc>Created with Sketch.</desc>
    <defs></defs>
    <g id="Page-1" stroke="none" stroke-width="1" fill="none" fill-rule="evenodd" sketch:type="MSPage">
        <g id="onboarding-6" sketch:type="MSArtboardGroup" transform="translate(-659.000000, -308.000000)">
            <g id="start-pause" sketch:type="MSLayerGroup" transform="translate(659.000000, 308.000000)">
                <path d="M115.452055,75 L115.452055,80.0909091 L147,80.090909 L147,85.9090908 L115.452055,85.9090909 L115.452055,91 L100,83 L115.452055,75 Z" id="Shape-Copy" fill="#FFFFFF" sketch:type="MSShapeGroup" transform="translate(123.500000, 83.000000) rotate(-180.000000) translate(-123.500000, -83.000000) "></path>
                <g id="panel" transform="translate(0.500000, 0.000000)" sketch:type="MSShapeGroup">
                    <rect id="Rectangle-25" fill="#FFFFFF" x="0" y="0" width="75" height="165" rx="2"></rect>
                    <g id="Oval-33-+-Oval-33-Copy" transform="translate(29.000000, 17.000000)">
                        <circle id="Oval-33" opacity="0.13048041" fill="#252525" cx="8.5" cy="8.5" r="8.5"></circle>
                        <circle id="Oval-33-Copy" fill="#FF5E5E" cx="8.5" cy="8.5" r="5.23076923"></circle>
                    </g>
                    <rect id="Rectangle-25-Copy" opacity="0.189715485" fill="#252525" x="4" y="46" width="42" height="23" rx="2"></rect>
                    <rect id="Rectangle-25-Copy-4" fill="#D6D6D6" x="4" y="72" width="42" height="5" rx="2"></rect>
                    <rect id="Rectangle-25-Copy-2" opacity="0.189715485" fill="#252525" x="60" y="46" width="11" height="23" rx="2"></rect>
                    <rect id="Rectangle-25-Copy-3" opacity="0.189715485" fill="#252525" x="48" y="46" width="11" height="23" rx="2"></rect>
                    <g id="Oval-30-+-Oval-30-Copy-+-Oval-30-Copy-2" transform="translate(4.000000, 5.000000)" fill="#252525">
                        <ellipse id="Oval-30" cx="2.62068966" cy="2.5" rx="2.62068966" ry="2.5"></ellipse>
                        <ellipse id="Oval-30-Copy" cx="9.17241379" cy="2.5" rx="2.62068966" ry="2.5"></ellipse>
                        <ellipse id="Oval-30-Copy-2" cx="16.3793103" cy="2.5" rx="2.62068966" ry="2.5"></ellipse>
                    </g>
                </g>
                <g id="panel-copy" transform="translate(170.500000, 0.000000)" sketch:type="MSShapeGroup">
                    <rect id="Rectangle-25" fill="#FFFFFF" x="0" y="0" width="75" height="165" rx="2"></rect>
                    <rect id="Rectangle-25-Copy" opacity="0.189715485" fill="#252525" x="4" y="46" width="42" height="23" rx="2"></rect>
                    <rect id="Rectangle-25-Copy-4" fill="#D6D6D6" x="4" y="72" width="42" height="5" rx="2"></rect>
                    <rect id="Rectangle-25-Copy-2" opacity="0.189715485" fill="#252525" x="60" y="46" width="11" height="23" rx="2"></rect>
                    <rect id="Rectangle-25-Copy-3" opacity="0.189715485" fill="#252525" x="48" y="46" width="11" height="23" rx="2"></rect>
                    <g id="Oval-30-+-Oval-30-Copy-+-Oval-30-Copy-2" transform="translate(4.000000, 5.000000)" fill="#252525">
                        <ellipse id="Oval-30" cx="2.62068966" cy="2.5" rx="2.62068966" ry="2.5"></ellipse>
                        <ellipse id="Oval-30-Copy" cx="9.17241379" cy="2.5" rx="2.62068966" ry="2.5"></ellipse>
                        <ellipse id="Oval-30-Copy-2" cx="16.3793103" cy="2.5" rx="2.62068966" ry="2.5"></ellipse>
                    </g>
                </g>
                <g id="pause" transform="translate(202.000000, 18.000000)" fill="#252525" sketch:type="MSShapeGroup">
                    <rect id="Rectangle-45" x="0" y="0" width="5" height="15" rx="1"></rect>
                    <rect id="Rectangle-45-Copy" x="8" y="0" width="5" height="15" rx="1"></rect>
                </g>
            </g>
        </g>
    </g>
</svg>